<svg width="9" height="13" viewBox="0 0 9 13" fill="none" xmlns="http://www.w3.org/2000/svg">
<mask id="mask0_686_695" style="mask-type:alpha" maskUnits="userSpaceOnUse" x="0" y="0" width="9" height="13">
<path fill-rule="evenodd" clip-rule="evenodd" d="M7.5 1H6.5V0H2.5V1H1.5C0.9 1 0.5 1.4 0.5 2V12C0.5 12.6 0.9 13 1.5 13H7.5C8.1 13 8.5 12.6 8.5 12V2C8.5 1.4 8.1 1 7.5 1V1Z" fill="white"/>
</mask>
<g mask="url(#mask0_686_695)">
<path opacity="0.9" fill-rule="evenodd" clip-rule="evenodd" d="M0.5 10V13H8.5V10H0.5Z" fill="white"/>
<path opacity="0.9" fill-rule="evenodd" clip-rule="evenodd" d="M0.5 7V10H8.5V7H0.5Z" fill="white"/>
<path opacity="0.3" fill-rule="evenodd" clip-rule="evenodd" d="M0.5 4V7H8.5V4H0.5Z" fill="white"/>
<path opacity="0.3" fill-rule="evenodd" clip-rule="evenodd" d="M0.5 1V4H8.5V1H0.5Z" fill="white"/>
<path opacity="0.3" fill-rule="evenodd" clip-rule="evenodd" d="M2.5 0V1H6.5V0H2.5Z" fill="white"/>
</g>
</svg>
