<svg width="146" height="6" viewBox="0 0 146 6" fill="none" xmlns="http://www.w3.org/2000/svg">
<path d="M4.45116 1.77781L2.92653 3.81518H2.75112L1.26022 1.77105V5.17788H0.376465V0.489258H1.39513L2.85907 2.50641L4.32298 0.489258H5.33491V5.17788H4.45116V1.77781V1.77781Z" fill="white"/>
<path d="M6.83936 5.17788V0.489258H7.71635V5.17788H6.83936Z" fill="white"/>
<path d="M12.2969 0.481934H13.1807V5.17727H12.6342V5.18402L10.1719 2.0133V5.17727H9.28809V0.488645H10.0032L12.2969 3.39626V0.481934Z" fill="white"/>
<path d="M15.8792 1.29206H14.395V0.489258C15.751 0.489258 16.8911 0.489258 18.2539 0.489258V1.29206H16.7697V5.17788H15.8859V1.29206H15.8792Z" fill="white"/>
<path d="M24.8047 4.28676H22.3559L21.9511 5.17052H20.9932L23.098 0.481934H24.0627L26.1675 5.17052H25.2028L24.8047 4.28676ZM23.577 1.47361L22.7067 3.4705H24.4472L23.577 1.47361Z" fill="white"/>
<path d="M33.3183 4.5839C32.8393 5.06288 32.2119 5.27878 31.5373 5.27878C29.7967 5.27878 29.0614 4.07794 29.0547 2.86363C29.0479 1.63582 29.844 0.394531 31.5373 0.394531C32.1714 0.394531 32.7786 0.637393 33.2575 1.10963L32.6706 1.67629C32.3603 1.37271 31.9488 1.23105 31.5373 1.23105C30.4039 1.23105 29.9182 2.07431 29.9249 2.85687C29.9317 3.63269 30.3769 4.44226 31.5373 4.44226C31.9488 4.44226 32.4075 4.27359 32.7179 3.97001L33.3183 4.5839Z" fill="white"/>
<path d="M37.6022 4.28676H35.1533L34.7485 5.17052H33.7905L35.8953 0.481934H36.8601L38.9649 5.17052H38.0002L37.6022 4.28676ZM36.3743 1.47361L35.5041 3.4705H37.2446L36.3743 1.47361Z" fill="white"/>
<path d="M44.1865 5.17727H43.1341L41.7714 3.61214H40.9213V5.17727H40.0376V0.481934C40.7797 0.481934 41.5218 0.488645 42.2638 0.488645C43.3702 0.495391 43.9504 1.23076 43.9504 2.04031C43.9504 2.6812 43.6536 3.33557 42.7631 3.51098L44.1798 5.10982V5.17727H44.1865ZM40.9213 1.3117V2.80934H42.2638C42.8238 2.80934 43.0666 2.43157 43.0666 2.06052C43.0666 1.68274 42.817 1.3117 42.2638 1.3117H40.9213Z" fill="white"/>
<path d="M49.0301 1.84525C49.0301 2.20955 48.8547 2.55362 48.4229 2.74926C48.9694 2.91792 49.1718 3.49808 49.1718 3.79492C49.1718 4.84058 48.3892 5.17788 47.4177 5.17788C46.6756 5.17788 45.9403 5.17788 45.1982 5.17788V0.489258C45.9336 0.489258 46.6756 0.489258 47.4177 0.489258C48.3352 0.489258 49.0301 0.900783 49.0301 1.84525ZM46.0617 2.37148H47.411C47.9642 2.37148 48.1463 2.13537 48.1463 1.87226C48.1463 1.65639 47.9709 1.29881 47.411 1.29881H46.0617V2.37148ZM46.0617 4.35486H47.411C47.7753 4.35486 48.288 4.23342 48.288 3.79492C48.288 3.36991 47.7753 3.15402 47.411 3.15402H46.0617V4.35486Z" fill="white"/>
<path d="M55.1421 2.85687C55.1286 4.07119 54.3865 5.27878 52.7404 5.27878C51.0944 5.27878 50.332 4.09144 50.332 2.86363C50.332 1.62907 51.1213 0.394531 52.7404 0.394531C54.3528 0.394531 55.1556 1.63581 55.1421 2.85687ZM51.1956 2.87713C51.2158 3.6462 51.634 4.46923 52.7337 4.46923C53.8333 4.46923 54.2516 3.63945 54.2651 2.87038C54.2786 2.08107 53.8333 1.19733 52.7337 1.19733C51.634 1.19733 51.1821 2.08783 51.1956 2.87713Z" fill="white"/>
<path d="M59.5406 0.481934H60.4243V5.17727H59.8779V5.18402L57.4155 2.0133V5.17727H56.5317V0.488645H57.2468L59.5406 3.39626V0.481934Z" fill="white"/>
<path d="M67.0088 0.481934H67.8926V5.17727H67.3461V5.18402L64.8838 2.0133V5.17727H64V0.488645H64.7151L67.0088 3.39626V0.481934Z" fill="white"/>
<path d="M72.8713 5.17788H69.3633C69.3633 3.61951 69.3633 2.04763 69.3633 0.489258H72.8713V1.34604H70.2403V2.42546H72.7769V3.24848H70.2403V4.30764H72.8713V5.17788Z" fill="white"/>
<path d="M78.3359 0.495605V3.18062C78.3359 4.57034 77.4859 5.27869 76.3053 5.27869C75.1787 5.27869 74.2207 4.59733 74.2207 3.18062V0.495605H75.0977V3.18062C75.0977 4.0239 75.5767 4.47589 76.3121 4.47589C77.0406 4.47589 77.4589 3.99017 77.4589 3.18062V0.495605H78.3359Z" fill="white"/>
<path d="M81.0813 1.29206H79.5972V0.489258C80.9464 0.489258 82.0932 0.489258 83.456 0.489258V1.29206H81.9718V5.17788H81.0881V1.29206H81.0813Z" fill="white"/>
<path d="M88.8193 5.17727H87.7669L86.4042 3.61214H85.5542V5.17727H84.6704V0.481934C85.4125 0.481934 86.1546 0.488645 86.9034 0.488645C88.0098 0.495391 88.59 1.23076 88.59 2.04031C88.59 2.6812 88.2931 3.33557 87.4026 3.51098L88.8193 5.10982V5.17727V5.17727ZM85.5474 1.3117V2.80934H86.8899C87.4498 2.80934 87.6927 2.43157 87.6927 2.06052C87.6927 1.68274 87.4431 1.3117 86.8899 1.3117H85.5474Z" fill="white"/>
<path d="M93.1773 4.28676H90.7285L90.3237 5.17052H89.3657L91.4705 0.481934H92.4352L94.5401 5.17052H93.5754L93.1773 4.28676ZM91.9495 1.47361L91.0793 3.4705H92.8198L91.9495 1.47361Z" fill="white"/>
<path d="M96.5639 0.489258V4.36162H98.9723V5.17788H95.6802V0.489258H96.5639Z" fill="white"/>
<path d="M102.285 5.17748V0.495605H105.651V1.34563H103.169V2.62743H105.516V3.4437H103.169V5.17748H102.285Z" fill="white"/>
<path d="M111.682 2.85687C111.669 4.07119 110.927 5.27878 109.281 5.27878C107.634 5.27878 106.872 4.09144 106.872 2.86363C106.872 1.62907 107.661 0.394531 109.281 0.394531C110.893 0.394531 111.696 1.63581 111.682 2.85687ZM107.736 2.87713C107.756 3.6462 108.174 4.46923 109.274 4.46923C110.38 4.46923 110.792 3.63945 110.805 2.87038C110.819 2.08107 110.373 1.19733 109.274 1.19733C108.174 1.19733 107.715 2.08783 107.736 2.87713Z" fill="white"/>
<path d="M117.612 2.85687C117.598 4.07119 116.856 5.27878 115.21 5.27878C113.564 5.27878 112.802 4.09144 112.802 2.86363C112.802 1.62907 113.591 0.394531 115.21 0.394531C116.823 0.394531 117.625 1.63581 117.612 2.85687ZM113.665 2.87713C113.686 3.6462 114.104 4.46923 115.203 4.46923C116.31 4.46923 116.721 3.63945 116.735 2.87038C116.748 2.08107 116.303 1.19733 115.203 1.19733C114.104 1.19733 113.645 2.08783 113.665 2.87713Z" fill="white"/>
<path d="M119.865 1.29206H118.381V0.489258C119.73 0.489258 120.877 0.489258 122.24 0.489258V1.29206H120.756V5.17788H119.872V1.29206H119.865Z" fill="white"/>
<path d="M125.654 3.7943H124.332V5.17727H123.448V0.488645C124.183 0.488645 124.918 0.481934 125.66 0.481934C127.941 0.481934 127.947 3.7943 125.654 3.7943ZM124.332 2.98475H125.654C126.787 2.98475 126.78 1.32521 125.654 1.32521H124.332V2.98475Z" fill="white"/>
<path d="M132.798 5.17727H131.745L130.383 3.61214H129.533V5.17727H128.649V0.481934C129.391 0.481934 130.133 0.488645 130.882 0.488645C131.988 0.495391 132.568 1.23076 132.568 2.04031C132.568 2.6812 132.272 3.33557 131.381 3.51098L132.798 5.10982V5.17727V5.17727ZM129.533 1.3117V2.80934H130.875C131.435 2.80934 131.678 2.43157 131.678 2.06052C131.678 1.68274 131.428 1.3117 130.875 1.3117H129.533Z" fill="white"/>
<path d="M133.837 5.17788V0.489258H134.714V5.17788H133.837Z" fill="white"/>
<path d="M139.294 0.481934H140.178V5.17727H139.632V5.18402L137.169 2.0133V5.17727H136.286V0.488645H137.001L139.294 3.39626V0.481934Z" fill="white"/>
<path d="M142.87 1.29206H141.386V0.489258C142.735 0.489258 143.882 0.489258 145.245 0.489258V1.29206H143.76V5.17788H142.877V1.29206H142.87Z" fill="white"/>
</svg>
