<svg width="153" height="39" viewBox="0 0 153 39" fill="none" xmlns="http://www.w3.org/2000/svg">
<path d="M32.823 3.13713C32.8109 3.19784 32.7987 3.25855 32.7825 3.31927C31.9244 7.0027 28.245 9.28967 24.5616 8.43156C20.8862 7.57344 18.5993 3.9062 19.4453 0.226807L32.823 3.13713Z" fill="white"/>
<path d="M13.657 6.47244C12.3617 10.0264 8.43545 11.8559 4.88154 10.5607C3.89389 10.2004 3.03982 9.63777 2.34766 8.93751L12.6815 0.00012207C14.0375 1.78922 14.4828 4.20976 13.657 6.47244Z" fill="#57E964"/>
<path d="M5.22157 23.6957C3.97487 25.4889 2.02387 26.5049 0 26.6222L0.935025 13.0704C1.83362 13.2485 2.70793 13.6088 3.50938 14.1633C6.61399 16.3248 7.37901 20.5911 5.22157 23.6957Z" fill="white"/>
<path d="M15.8672 37.5509L3.69971 31.5157C5.60214 28.6459 9.40297 27.6097 12.5359 29.2207C15.6041 30.7953 16.9722 34.3775 15.8672 37.5509Z" fill="#57E964"/>
<path d="M33.0132 29.0748L22.9991 38.4129C21.4003 36.6602 20.7607 34.1223 21.5419 31.7018C22.6996 28.1034 26.5611 26.124 30.1596 27.2857C31.2848 27.6459 32.2522 28.2733 33.0132 29.0748Z" fill="white"/>
<path d="M36.0248 24.5658C34.6769 24.667 33.2845 24.3634 32.0297 23.6187C28.7834 21.6838 27.7188 17.4823 29.6496 14.232C31.0137 11.941 33.5111 10.7347 36.0045 10.9047L36.0248 24.5658Z" fill="#57E964"/>
<path d="M18.6115 14.0822C19.9553 14.0782 21.121 14.5436 22.1289 15.418C23.1611 16.3206 23.8047 17.4499 24.0557 18.8019C24.1042 19.0731 24.1326 19.3524 24.1447 19.6276C24.1609 20.004 24.1771 20.3845 24.1447 20.761C24.0314 22.1574 23.574 23.4163 22.5701 24.4282C21.8577 25.1487 20.9875 25.5737 19.9958 25.768C19.5181 25.8611 19.0405 25.934 18.5548 25.938C18.3645 25.938 18.1703 25.9178 17.9841 25.8773C17.5631 25.7842 17.1421 25.6911 16.7333 25.5575C15.8995 25.2904 15.2478 24.7682 14.7418 24.0558C14.6204 23.8818 14.4625 23.736 14.329 23.5701C13.7542 22.8658 13.3292 22.0846 13.1025 21.1981C12.9689 20.68 12.9203 20.1538 12.9568 19.6155C12.9892 19.1378 13.0539 18.6683 13.1835 18.2068C13.3818 17.5025 13.6773 16.8428 14.1144 16.2477C14.839 15.2641 15.7983 14.6205 16.9721 14.2967C17.5064 14.147 18.0569 14.0782 18.6115 14.0822ZM17.4821 16.9561C17.4821 16.9642 17.4862 16.9682 17.4862 16.9763C17.466 16.9885 17.4457 17.0047 17.4214 17.0168C17.1098 17.199 16.8264 17.4094 16.5714 17.6644C16.3204 17.9154 16.0857 18.1785 15.8347 18.4295C15.0333 19.235 14.6649 20.2186 14.6082 21.3357C14.5921 21.6717 14.6285 22.0036 14.6852 22.3355C14.7297 22.5784 14.7985 22.8051 14.9645 22.9953C15.0737 23.1208 15.1668 23.2544 15.2761 23.3799C15.7942 23.987 16.4054 24.4727 17.134 24.8127C17.2352 24.8613 17.3405 24.922 17.4457 24.922C17.725 24.9261 18.0083 24.9058 18.2876 24.8856C18.5386 24.8654 18.7815 24.7925 19.0365 24.8046C19.927 24.8492 20.7122 24.5699 21.3882 23.987C21.5177 23.8737 21.6473 23.7441 21.7363 23.5944C22.0804 23.0196 22.2585 22.3922 22.2989 21.7243C22.3192 21.4369 22.3192 21.1455 22.3273 20.8541C22.3516 20.2509 22.2787 19.66 22.1006 19.0812C22.052 18.9192 21.9954 18.7614 21.9387 18.5995C22.4001 19.2269 22.6592 19.9312 22.7685 20.7002C22.7725 20.5545 22.7806 20.4129 22.7725 20.2712C22.7118 19.2714 22.3232 18.4214 21.6108 17.7171C21.4732 17.5835 21.3275 17.4621 21.1899 17.3244C20.9713 17.1018 20.7729 16.8589 20.5422 16.6525C19.9836 16.1627 19.3401 15.8349 18.5993 15.7175C18.5062 15.7013 18.4131 15.6892 18.32 15.677C18.3362 15.6608 18.3524 15.6527 18.3686 15.6527C18.9191 15.5556 19.4736 15.5475 20.0282 15.6284C20.182 15.6527 20.3479 15.673 20.4815 15.7458C21.0968 16.0818 21.6189 16.527 22.048 17.0856C22.6713 17.8992 22.9951 18.8302 23.0559 19.8462C23.0963 20.4695 23.0356 21.0888 22.8737 21.696C22.7968 21.9915 22.728 22.291 22.6592 22.5905C22.6916 22.5744 22.7078 22.5501 22.7239 22.5258C22.8292 22.3234 22.9466 22.125 23.0437 21.9186C23.323 21.3033 23.4768 20.6598 23.5011 19.9838C23.5173 19.5143 23.4849 19.0528 23.3473 18.6035C23.1206 17.8628 22.7361 17.2071 22.2382 16.6161C22.1654 16.5311 22.0885 16.4461 22.0035 16.3489C22.0318 16.3489 22.0439 16.3489 22.0601 16.3489C22.0642 16.3449 22.0682 16.3368 22.0723 16.3327C21.9792 16.2437 21.8861 16.1587 21.797 16.0696C21.4651 15.7539 21.0725 15.5272 20.6758 15.3127C20.012 14.9525 19.3158 14.7622 18.5548 14.8027C18.0002 14.8351 17.47 14.9768 16.964 15.1872C16.0897 15.5556 15.3935 16.1587 14.8511 16.9359C14.7904 17.0249 14.7297 17.118 14.6609 17.199C14.3775 17.5228 14.1306 17.8709 13.9363 18.2554C13.5477 19.0164 13.3737 19.83 13.3656 20.68C13.3656 20.8905 13.3656 21.1131 13.4263 21.3115C13.5963 21.8741 13.8392 22.4043 14.1428 22.9103C14.1549 22.9305 14.1711 22.9508 14.1832 22.971C14.082 22.6189 14.0051 22.2627 13.9647 21.8984C13.9242 21.5503 13.9323 20.9188 13.9809 20.8136C14.0011 20.8986 14.0173 20.9836 14.0375 21.0645C14.0578 21.1455 14.082 21.2224 14.0942 21.2831C14.1225 20.9553 14.1306 20.6112 14.1792 20.2752C14.2278 19.9393 14.2925 19.6033 14.3978 19.2795C14.5394 18.8383 14.8309 18.478 15.1506 18.1461C15.7538 17.5187 16.4904 17.1463 17.3405 16.9723C17.3971 16.9682 17.4417 16.9642 17.4821 16.9561Z" fill="white"/>
<path d="M58.4452 14.9481L52.3736 23.0436H51.6814L45.7434 14.9198V28.4756H42.226V9.83179H46.2737L52.1065 17.8503L57.9393 9.83179H61.9627V28.4756H58.4452V14.9481V14.9481Z" fill="white"/>
<path d="M68.5646 11.617C68.5646 14.1468 64.7274 14.1468 64.7274 11.617C64.7314 9.08715 68.5646 9.08715 68.5646 11.617ZM65.0229 15.268V28.4515H68.2732V15.268H65.0229V15.268Z" fill="white"/>
<path d="M80.874 28.4516V21.5785C80.874 19.579 79.7811 18.0611 77.7046 18.0611C75.705 18.0611 74.349 19.7409 74.349 21.7364V28.4475H71.127V15.2884H74.0293L74.2438 17.0734C75.5755 15.77 76.9072 15.1022 78.5587 15.1022C81.6471 15.1022 84.1243 17.4215 84.1243 21.5462V28.4435H80.874V28.4516Z" fill="white"/>
<path d="M90.9404 11.6167V15.3447H94.5631V18.1416H90.9121V23.8166C90.9121 25.0673 91.6043 25.6826 92.6162 25.6826C93.1222 25.6826 93.7091 25.5247 94.1867 25.2818L95.0934 28.0505C94.1624 28.4229 93.3893 28.5848 92.4016 28.6091C89.552 28.7143 87.6861 27.0912 87.6861 23.8125V18.1376H85.2372V15.3406H87.6861V11.9567L90.9404 11.6167Z" fill="white"/>
<path d="M96.3723 9.8075H110.701V11.459L101.031 25.1241H110.701V28.4554H96.1295V26.4315L105.585 13.1145H96.3683V9.8075H96.3723Z" fill="#57E964"/>
<path d="M115.632 23.0439C115.846 24.667 117.255 25.8408 119.546 25.8408C120.744 25.8408 122.314 25.3875 123.063 24.6144L125.14 26.6666C123.755 28.1035 121.489 28.7957 119.493 28.7957C114.964 28.7957 112.276 25.9987 112.276 21.7891C112.276 17.7939 114.992 14.916 119.254 14.916C123.65 14.916 126.395 17.632 125.889 23.0398H115.632V23.0439ZM122.768 20.3562C122.553 18.6521 121.222 17.798 119.36 17.798C117.603 17.798 116.162 18.6521 115.684 20.3562H122.768Z" fill="#57E964"/>
<path d="M131.397 15.3206L131.636 16.8385C132.648 15.2154 134.008 14.9725 135.34 14.9725C136.7 14.9725 138.003 15.5068 138.724 16.2233L137.259 19.0446C136.591 18.486 135.979 18.1905 134.915 18.1905C133.211 18.1905 131.64 19.0972 131.64 21.5218V28.4474H128.39V15.3166H131.397V15.3206Z" fill="#57E964"/>
<path d="M153 21.8984C153 25.679 150.417 28.7432 146.155 28.7432C141.893 28.7432 139.335 25.679 139.335 21.8984C139.335 18.1421 141.946 15.0537 146.127 15.0537C150.308 15.0537 153 18.1421 153 21.8984ZM142.585 21.8984C142.585 23.898 143.783 25.76 146.155 25.76C148.527 25.76 149.725 23.894 149.725 21.8984C149.725 19.9272 148.341 18.0086 146.155 18.0086C143.812 18.0086 142.585 19.9272 142.585 21.8984Z" fill="#57E964"/>
</svg>
