<svg width="20" height="21" viewBox="0 0 20 21" fill="none" xmlns="http://www.w3.org/2000/svg">
<path d="M10.0191 0.470007C12.2588 0.463261 14.2017 1.23909 15.8815 2.69627C17.6018 4.20067 18.6745 6.08286 19.0927 8.33609C19.1737 8.78809 19.2209 9.25358 19.2411 9.71232C19.2681 10.3397 19.2951 10.9739 19.2411 11.6013C19.0522 13.9287 18.2899 16.0268 16.6169 17.7133C15.4295 18.9141 13.9791 19.6225 12.3263 19.9463C11.5302 20.1015 10.7342 20.2229 9.92462 20.2296C9.60755 20.2296 9.28373 20.1959 8.9734 20.1285C8.2718 19.9733 7.57019 19.8182 6.88883 19.5955C5.49911 19.1503 4.41296 18.28 3.56968 17.0927C3.3673 16.8026 3.1042 16.5597 2.88158 16.2831C1.92361 15.1093 1.21526 13.8073 0.837474 12.3299C0.614849 11.4663 0.533905 10.5893 0.594621 9.69209C0.64859 8.89603 0.756528 8.11347 0.972407 7.3444C1.30297 6.17056 1.79544 5.07093 2.52403 4.07923C3.7316 2.4399 5.33045 1.36725 7.28685 0.827556C8.17735 0.577946 9.09485 0.463261 10.0191 0.470007ZM8.13688 5.25982C8.13688 5.27331 8.14363 5.28005 8.14363 5.29354C8.1099 5.31378 8.07617 5.34077 8.03569 5.36101C7.51623 5.66459 7.04399 6.0154 6.61898 6.44041C6.20072 6.85867 5.80943 7.29719 5.39117 7.71545C4.05542 9.05795 3.44151 10.6973 3.34707 12.5592C3.32008 13.1192 3.3808 13.6724 3.47525 14.2255C3.54945 14.6303 3.66414 15.0081 3.94074 15.3252C4.12288 15.5343 4.27804 15.7569 4.46019 15.9661C5.3237 16.978 6.34238 17.7875 7.55669 18.3542C7.72535 18.4352 7.90076 18.5364 8.07617 18.5364C8.54165 18.5431 9.01388 18.5094 9.47937 18.4756C9.89763 18.4419 10.3024 18.3205 10.7274 18.3407C12.2116 18.4149 13.5204 17.9495 14.647 16.978C14.8628 16.7891 15.0787 16.5732 15.2272 16.3236C15.8006 15.3656 16.0974 14.32 16.1649 13.2069C16.1986 12.7279 16.1986 12.2422 16.2121 11.7564C16.2526 10.7512 16.1311 9.76629 15.8343 8.80158C15.7534 8.53173 15.6589 8.26863 15.5645 7.99878C16.3335 9.04444 16.7653 10.2183 16.9474 11.5001C16.9542 11.2572 16.9677 11.0211 16.9542 10.785C16.853 9.11865 16.2053 7.70195 15.018 6.52811C14.7886 6.30549 14.5458 6.1031 14.3164 5.87373C13.9521 5.50269 13.6215 5.09791 13.237 4.75386C12.306 3.93756 11.2334 3.39112 9.99884 3.19548C9.84368 3.1685 9.68851 3.14825 9.53335 3.12802C9.56033 3.10103 9.58732 3.08754 9.6143 3.08754C10.5318 2.92563 11.456 2.91214 12.3803 3.04706C12.6366 3.08754 12.9132 3.12128 13.1358 3.24271C14.1612 3.80265 15.0315 4.54473 15.7466 5.4757C16.7855 6.83169 17.3252 8.38333 17.4264 10.0766C17.4939 11.1155 17.3927 12.1477 17.1228 13.1596C16.9947 13.6521 16.88 14.1513 16.7653 14.6506C16.8193 14.6236 16.8462 14.5831 16.8732 14.5426C17.0486 14.2053 17.2443 13.8747 17.4062 13.5307C17.8717 12.5052 18.128 11.4326 18.1685 10.306C18.1955 9.52343 18.1415 8.75436 17.9121 8.00553C17.5343 6.77098 16.8935 5.67809 16.0637 4.69314C15.9422 4.55147 15.8141 4.4098 15.6724 4.24789C15.7196 4.24789 15.7399 4.24789 15.7668 4.24789C15.7736 4.24114 15.7803 4.22764 15.7871 4.2209C15.6319 4.07248 15.4768 3.93082 15.3283 3.7824C14.7752 3.25619 14.1208 2.87841 13.4596 2.52086C12.3533 1.92045 11.1929 1.60337 9.92462 1.67083C9.00039 1.7248 8.11664 1.96093 7.27337 2.31173C5.81618 2.92564 4.65583 3.93083 3.75184 5.2261C3.65065 5.37451 3.54946 5.52967 3.43477 5.6646C2.96253 6.20429 2.55101 6.78446 2.22719 7.42535C1.57956 8.69364 1.28947 10.0496 1.27597 11.4663C1.27597 11.8171 1.27597 12.1882 1.37716 12.5187C1.6605 13.4565 2.06529 14.3402 2.57126 15.1835C2.59149 15.2172 2.61848 15.251 2.63872 15.2847C2.47007 14.6978 2.34188 14.1041 2.27442 13.4969C2.20696 12.9168 2.22046 11.8644 2.30141 11.689C2.33514 11.8306 2.36212 11.9723 2.39585 12.1072C2.42958 12.2421 2.47007 12.3703 2.4903 12.4715C2.53753 11.9251 2.55101 11.3517 2.63197 10.7917C2.71292 10.2318 2.82087 9.67184 2.99627 9.13214C3.23239 8.3968 3.7181 7.7964 4.25106 7.24321C5.25624 6.19755 6.48405 5.5769 7.90076 5.28681C7.9952 5.28007 8.06942 5.27331 8.13688 5.25982Z" fill="white"/>
</svg>
