<svg width="13" height="12" viewBox="0 0 13 12" fill="none" xmlns="http://www.w3.org/2000/svg">
<path d="M6.61146 0.0821997C7.95531 0.078152 9.12104 0.543649 10.1289 1.41796C11.1611 2.3206 11.8047 3.44991 12.0557 4.80186C12.1042 5.07306 12.1326 5.35235 12.1447 5.6276C12.1609 6.00404 12.1771 6.38452 12.1447 6.76096C12.0314 8.15743 11.574 9.41627 10.5701 10.4282C9.85774 11.1487 8.98747 11.5737 7.99578 11.768C7.51815 11.8611 7.04052 11.934 6.55479 11.938C6.36454 11.938 6.17025 11.9178 5.98406 11.8773C5.56309 11.7842 5.14213 11.6911 4.73331 11.5575C3.89947 11.2904 3.24778 10.7682 2.74182 10.0558C2.62039 9.88177 2.46253 9.73604 2.32895 9.57009C1.75418 8.86578 1.32916 8.08457 1.10249 7.19812C0.968916 6.68001 0.920349 6.1538 0.956779 5.61546C0.98916 5.13782 1.05392 4.66828 1.18345 4.20684C1.38179 3.50253 1.67727 2.84276 2.11442 2.24774C2.83897 1.26414 3.79828 0.620548 4.97212 0.296729C5.50642 0.146963 6.05692 0.078152 6.61146 0.0821997ZM5.48214 2.95609C5.48214 2.96419 5.48619 2.96823 5.48619 2.97633C5.46595 2.98847 5.44571 3.00466 5.42143 3.01681C5.10975 3.19895 4.82641 3.40944 4.5714 3.66445C4.32044 3.9154 4.08567 4.17851 3.83471 4.42947C3.03326 5.23497 2.66492 6.21857 2.60825 7.33574C2.59206 7.6717 2.62849 8.00362 2.68516 8.33553C2.72968 8.5784 2.79849 8.80507 2.96445 8.99531C3.07374 9.12079 3.16683 9.25437 3.27612 9.37985C3.79423 9.98701 4.40544 10.4727 5.13403 10.8127C5.23522 10.8613 5.34047 10.922 5.44571 10.922C5.72501 10.9261 6.00834 10.9058 6.28764 10.8856C6.53859 10.8654 6.78146 10.7925 7.03647 10.8046C7.92697 10.8492 8.71223 10.5699 9.3882 9.98701C9.51773 9.87368 9.64726 9.74414 9.73631 9.59437C10.0804 9.01959 10.2585 8.3922 10.2989 7.72432C10.3192 7.43693 10.3192 7.1455 10.3273 6.85406C10.3516 6.25095 10.2787 5.65998 10.1006 5.08115C10.052 4.91924 9.99537 4.76138 9.9387 4.59947C10.4001 5.22687 10.6592 5.93118 10.7685 6.70024C10.7725 6.55453 10.7806 6.41286 10.7725 6.27119C10.7118 5.2714 10.3232 4.42137 9.61082 3.71707C9.4732 3.58349 9.32749 3.46206 9.18986 3.32444C8.97129 3.10181 8.77295 2.85895 8.54223 2.65251C7.98364 2.16274 7.34005 1.83487 6.59932 1.71749C6.50622 1.7013 6.41312 1.68915 6.32002 1.67701C6.33622 1.66082 6.3524 1.65272 6.36859 1.65272C6.91909 1.55558 7.47363 1.54748 8.02817 1.62844C8.18198 1.65272 8.34794 1.67297 8.48151 1.74582C9.09677 2.08179 9.61892 2.52704 10.048 3.08562C10.6713 3.89922 10.9951 4.8302 11.0559 5.84618C11.0963 6.46953 11.0356 7.08882 10.8737 7.69598C10.7968 7.99147 10.728 8.29101 10.6592 8.59054C10.6916 8.57435 10.7078 8.55005 10.7239 8.52576C10.8292 8.32338 10.9466 8.12504 11.0437 7.9186C11.323 7.30335 11.4768 6.65977 11.5011 5.9838C11.5173 5.51426 11.4849 5.05282 11.3473 4.60352C11.1206 3.86279 10.7361 3.20705 10.2382 2.61608C10.1654 2.53108 10.0885 2.44608 10.0035 2.34893C10.0318 2.34893 10.0439 2.34893 10.0601 2.34893C10.0642 2.34488 10.0682 2.33679 10.0723 2.33274C9.97917 2.24369 9.88607 2.15869 9.79702 2.06964C9.46511 1.75391 9.07247 1.52724 8.67579 1.31271C8.01197 0.952466 7.31576 0.762218 6.55479 0.802696C6.00025 0.835078 5.47 0.976753 4.96403 1.18724C4.08972 1.55558 3.39351 2.15869 2.85111 2.93586C2.7904 3.02491 2.72968 3.118 2.66087 3.19896C2.37753 3.52278 2.13061 3.87088 1.93632 4.25541C1.54774 5.01638 1.37369 5.82999 1.36559 6.68001C1.36559 6.89049 1.36559 7.11312 1.4263 7.31146C1.59631 7.87409 1.83918 8.40434 2.14276 8.9103C2.1549 8.93054 2.1711 8.95079 2.18324 8.97103C2.08205 8.61888 2.00514 8.26267 1.96466 7.89837C1.92418 7.55027 1.93228 6.91882 1.98085 6.81358C2.00109 6.89858 2.01728 6.98358 2.03752 7.06454C2.05775 7.14549 2.08205 7.2224 2.09419 7.28312C2.12252 6.95525 2.13062 6.6112 2.17919 6.27524C2.22776 5.93928 2.29253 5.60331 2.39777 5.27949C2.53944 4.83828 2.83087 4.47804 3.15064 4.14613C3.75375 3.51873 4.49044 3.14634 5.34047 2.97229C5.39714 2.96824 5.44166 2.96419 5.48214 2.95609Z" fill="white"/>
</svg>
