<svg width="17" height="12" viewBox="0 0 17 12" fill="none" xmlns="http://www.w3.org/2000/svg">
<mask id="mask0_686_677" style="mask-type:alpha" maskUnits="userSpaceOnUse" x="0" y="0" width="17" height="12">
<path fill-rule="evenodd" clip-rule="evenodd" d="M0.5 0L8.5 12L16.5 0H0.5Z" fill="white"/>
</mask>
<g mask="url(#mask0_686_677)">
<path opacity="0.3" fill-rule="evenodd" clip-rule="evenodd" d="M8.5 0C1.9 0 -3.5 5.4 -3.5 12C-3.5 18.6 1.9 24 8.5 24C15.1 24 20.5 18.6 20.5 12C20.5 5.4 15.1 0 8.5 0V0ZM8.5 21C3.5 21 -0.5 17 -0.5 12C-0.5 7 3.5 3 8.5 3C13.5 3 17.5 7 17.5 12C17.5 17 13.5 21 8.5 21V21Z" fill="white"/>
<path opacity="0.9" fill-rule="evenodd" clip-rule="evenodd" d="M8.5 3C3.5 3 -0.5 7 -0.5 12C-0.5 17 3.5 21 8.5 21C13.5 21 17.5 17 17.5 12C17.5 7 13.5 3 8.5 3V3ZM8.5 18C5.2 18 2.5 15.3 2.5 12C2.5 8.7 5.2 6 8.5 6C11.8 6 14.5 8.7 14.5 12C14.5 15.3 11.8 18 8.5 18V18Z" fill="white"/>
<path opacity="0.9" fill-rule="evenodd" clip-rule="evenodd" d="M8.5 6C5.2 6 2.5 8.7 2.5 12C2.5 15.3 5.2 18 8.5 18C11.8 18 14.5 15.3 14.5 12C14.5 8.7 11.8 6 8.5 6V6ZM8.5 15C6.8 15 5.5 13.7 5.5 12C5.5 10.3 6.8 9 8.5 9C10.2 9 11.5 10.3 11.5 12C11.5 13.7 10.2 15 8.5 15V15Z" fill="white"/>
<path opacity="0.9" fill-rule="evenodd" clip-rule="evenodd" d="M8.5 15C10.1569 15 11.5 13.6569 11.5 12C11.5 10.3431 10.1569 9 8.5 9C6.84315 9 5.5 10.3431 5.5 12C5.5 13.6569 6.84315 15 8.5 15Z" fill="white"/>
</g>
</svg>
